<svg version="1.2" xmlns="http://www.w3.org/2000/svg" viewBox="0 0 186 155" width="186" height="155"><defs><clipPath clipPathUnits="userSpaceOnUse" id="cp1"><path d="m133 37h14.91v15h-14.91z"/></clipPath><clipPath clipPathUnits="userSpaceOnUse" id="cp2"><path d="m109 2.52h15v14.48h-15z"/></clipPath><clipPath clipPathUnits="userSpaceOnUse" id="cp3"><path d="m36.91 31h85.09v85.52h-85.09z"/></clipPath></defs><style>.a{fill:#068dd5}.b{fill:#5271ff}.c{fill:#ee4434}.d{fill:#545454}</style><path fill-rule="evenodd" class="a" d="m99.3 47.9l7.1 7-7.1 7.1-7-7.1z"/><path fill-rule="evenodd" class="a" d="m111.5 20l8.4 8.5-8.4 8.4-8.5-8.4z"/><g clip-path="url(#cp1)"><path fill-rule="evenodd" class="a" d="m141 37.6l7.1 7.1-7.1 7-7-7z"/></g><path fill-rule="evenodd" class="a" d="m117.5 59.7l5.3 5.3-5.3 5.3-5.3-5.3z"/><path fill-rule="evenodd" class="b" d="m134.6 51.2l7 7-7 7.1-7.1-7.1z"/><path fill-rule="evenodd" class="b" d="m123.9 34.7l4.8 4.8-4.8 4.7-4.7-4.7z"/><g clip-path="url(#cp2)"><path fill-rule="evenodd" class="b" d="m116.4 2.6l7 7-7 7.1-7.1-7.1z"/></g><path fill-rule="evenodd" class="c" d="m93.6 25.4l9.4 9.4-9.4 9.4-9.3-9.4z"/><path fill-rule="evenodd" class="c" d="m114.5 45.3l5.2 5.2-5.2 5.1-5.2-5.1z"/><path fill-rule="evenodd" class="c" d="m131.1 17.5l5.6 5.6-5.6 5.6-5.6-5.6z"/><g clip-path="url(#cp3)"><path fill-rule="evenodd" class="b" d="m74.6 44l0.9 19.9 9.8 0.5c1.8 0.1 3.4 1.7 3.5 3.5l0.5 9.8 20 0.9 6.2 0.3-0.1-2.3-0.2-3.5 2.3 2.3 3.4-3.4 0.4 7.2 0.2 4.1v1.7c-0.1 0.7-0.4 1.3-1 1.9l-4.4 4.4-11.2 11.2-5.6 5.6-7.1 7.1q-0.5 0.5-1.2 0.8c-1.3 0.6-2.9 0.3-4-0.8l-1.9-1.9-6.2-6.2-32.8-32.8-6.2-6.2-1.9-1.9c-1.1-1.1-1.4-2.7-0.8-4q0.3-0.7 0.8-1.2l28.4-28.3c0.5-0.6 1.1-0.9 1.8-1h1.7l13.9 0.7-2.3 2.4 3.4 3.4-8.2-0.4-2.4-0.1 0.3 6.3zm-26.2 24.5l36.4 36.3-0.2-3.2-1.5-31.5-31.5-1.5c0 0-3.2-0.1-3.2-0.1zm66.2 16.2l-25-1.2 0.8 18.4 0.3 5.8v0.9c0 0 23.9-23.9 23.9-23.9zm-69.9-22.2l0.8 0.1 5.8 0.2 18.4 0.9-1.1-25.1-17.6 17.6c0 0-6.3 6.3-6.3 6.3z"/></g><path class="d" d="m22.1 135.5h-7.7v-4.5q0-1-1.1-1h-1.5q-1.1 0-1.1 1v16.2q0 1 1.1 1h1.5q1.1 0 1.1-1v-4.4h7.7v5q0 5.4-6.4 5.4h-6.2q-6.5 0-6.5-5.4v-17.4q0-5.4 6.5-5.4h6.2q6.4 0 6.4 5.4z"/><path fill-rule="evenodd" class="d" d="m31 131.3h5.6q3.4 0 4.8 1.4 1.5 1.4 1.5 4v11.1q0 2.6-1.5 4-1.4 1.4-4.8 1.4h-5.6q-3.3 0-4.8-1.4-1.4-1.4-1.4-4v-11.1q0-2.6 1.4-4 1.5-1.4 4.8-1.4zm4.5 15.8v-9.7q0-0.9-1.1-0.9h-1.2q-1.1 0-1.1 0.9v9.7q0 0.9 1.1 0.9h1.2q1.1 0 1.1-0.9z"/><path class="d" d="m57.5 131.3h0.8q5.9 0 5.9 5.4v16.5h-7.5v-15.5q0-0.9-1.1-0.9h-0.8q-1.1 0-1.1 1.3v15.1h-7.5v-21.9h7.3v2.8q0.6-2.8 4-2.8z"/><path class="d" d="m78.6 136.8h-2.8v10q0 0.9 1.1 0.9h1.7v5.5h-3.8q-6.5 0-6.5-5.4v-11h-2.4v-5.5h2.4v-4.3h7.5v4.3h2.8z"/><path fill-rule="evenodd" class="d" d="m91 131.3h7.4v21.9h-7.5v-2.3q-0.9 2.3-3.9 2.3h-0.8q-5.8 0-5.8-5.4v-11.1q0-5.4 5.8-5.4h0.8q3.4 0 4 2.8zm-2.1 16.4h0.8q1.2 0.1 1.2-1.3v-8.3q0-1.3-1.2-1.3h-0.8q-1 0-1 0.9v9.1q0 1 1 0.9z"/><path class="d" d="m119.1 139.8h-7.2v-2.1q0-0.9-1.1-0.9h-0.8q-1.1 0-1.1 0.9v9.1q0 0.9 1.1 0.9h0.8q1.1 0 1.1-0.9v-2.1h7.2v3.1q0 5.4-6.5 5.4h-4.7q-6.4 0-6.4-5.4v-11.1q0-5.4 6.4-5.4h4.7q6.5 0 6.5 5.4z"/><path class="d" d="m132.9 136.8h-2.8v10q0 0.9 1.1 0.9h1.6v5.5h-3.7q-6.5 0-6.5-5.4v-11h-2.4v-5.5h2.4v-4.3h7.5v4.3h2.8z"/><path class="b" d="m141.9 153.2h-6.8v-28.2h8.4l4.6 15.1 4.5-15.1h8.4v28.2h-6.8v-17.9l-3.5 11.8h-5.3l-3.5-11.7z"/><path fill-rule="evenodd" class="b" d="m170.6 131.3h5.4q6.4 0 6.4 5.4v7.5h-11.2v2.9q0 1 1.1 1h2q1 0 1.1-1.1v-1.2h7v2q0 5.4-6.4 5.4h-5.4q-6.5 0-6.5-5.4v-11.1q0-5.4 6.5-5.4zm0.6 8.9h4.2v-2.8q-0.1-1-1.1-1h-2q-1.1 0-1.1 1z"/></svg>