<svg version="1.2" xmlns="http://www.w3.org/2000/svg" viewBox="0 0 187 33" width="187" height="33"><style>.a{fill:#fff}.b{fill:#5271ff}</style><path class="a" d="m23.1 13.3h-7.7v-4.5q0-1-1.1-1h-1.5q-1.1 0-1.1 1v16.2q0 0.9 1.1 0.9h1.5q1.1 0 1.1-0.9v-4.4h7.7v4.9q0 5.5-6.4 5.5h-6.2q-6.5 0-6.5-5.5v-17.3q0-5.5 6.5-5.5h6.2q6.4 0 6.4 5.5z"/><path fill-rule="evenodd" class="a" d="m32 9h5.6q3.4 0 4.8 1.4 1.5 1.4 1.5 4.1v11q0 2.7-1.5 4.1-1.4 1.4-4.8 1.4h-5.6q-3.3 0-4.8-1.4-1.4-1.4-1.4-4.1v-11q0-2.7 1.4-4.1 1.5-1.4 4.8-1.4zm4.5 15.8v-9.6q0-1-1.1-1h-1.2q-1.1 0-1.1 1v9.6q0 1 1.1 1h1.2q1.1 0 1.1-1z"/><path class="a" d="m58.5 9h0.8q5.9 0 5.9 5.5v16.5h-7.5v-15.5q0-1-1.1-1h-0.8q-1.1 0-1.1 1.4v15.1h-7.5v-22h7.3v2.8q0.6-2.8 4-2.8z"/><path class="a" d="m79.6 14.5h-2.8v10q0 1 1.1 1h1.7v5.5h-3.8q-6.5 0-6.5-5.5v-11h-2.4v-5.5h2.4v-4.3h7.5v4.3h2.8z"/><path fill-rule="evenodd" class="a" d="m92 9h7.4v22h-7.5v-2.4q-0.9 2.4-3.9 2.4h-0.8q-5.8 0-5.8-5.5v-11q0-5.5 5.8-5.5h0.8q3.4 0 4 2.8zm-2.1 16.5h0.8q1.2 0 1.2-1.3v-8.3q0-1.4-1.2-1.4h-0.8q-1 0-1 1v9q0 1 1 1z"/><path class="a" d="m120.1 17.5h-7.2v-2q0-1-1.1-1h-0.8q-1.1 0-1.1 1v9q0 1 1.1 1h0.8q1.1 0 1.1-1v-2h7.2v3q0 5.5-6.5 5.5h-4.7q-6.4 0-6.4-5.5v-11q0-5.5 6.4-5.5h4.7q6.5 0 6.5 5.5z"/><path class="a" d="m133.9 14.5h-2.8v10q0 1 1.1 1h1.6v5.5h-3.7q-6.5 0-6.5-5.5v-11h-2.4v-5.5h2.4v-4.3h7.5v4.3h2.8z"/><path class="b" d="m142.9 31h-6.8v-28.3h8.4l4.6 15.1 4.5-15.1h8.4v28.3h-6.8v-18l-3.5 11.9h-5.3l-3.5-11.8z"/><path fill-rule="evenodd" class="b" d="m171.6 9h5.4q6.4 0 6.4 5.5v7.5h-11.2v2.9q0 0.9 1.1 0.9h2q1 0 1.1-1v-1.2h7v1.9q0 5.5-6.4 5.5h-5.4q-6.5 0-6.5-5.5v-11q0-5.5 6.5-5.5zm0.6 8.9h4.2v-2.7q-0.1-1-1.1-1h-2q-1.1 0-1.1 1z"/></svg>